<?xml version="1.0" encoding="UTF-8"?>
<!DOCTYPE svg PUBLIC "-//W3C//DTD SVG 1.1//EN" "http://www.w3.org/Graphics/SVG/1.1/DTD/svg11.dtd">
<!-- Creator: CorelDRAW 2018 (64 Bit) -->
<svg xmlns="http://www.w3.org/2000/svg" xml:space="preserve" width="2114px" height="2483px" version="1.1" style="shape-rendering:geometricPrecision; text-rendering:geometricPrecision; image-rendering:optimizeQuality; fill-rule:evenodd; clip-rule:evenodd"
viewBox="0 0 2238.79 2630.09"
 xmlns:xlink="http://www.w3.org/1999/xlink">
 <defs>
  <style type="text/css">
   <![CDATA[
    .fil0 {fill:white}
   ]]>
  </style>
 </defs>
 <g id="Camada_x0020_1">
  <metadata id="CorelCorpID_0Corel-Layer"/>
  <path class="fil0" d="M76.35 461.02c0,242.18 196.34,423.87 196.34,621.74 0,76.62 -34.58,145.58 -60.87,198.19l-21.81 40.9c-4.55,9.1 -7.31,12.37 -11.87,20.86 -4.46,8.33 -6.56,13.71 -11.27,21.45 -8.71,14.29 -14.17,28.28 -22.87,42.57 -26.66,43.79 -83.35,179.13 -99.32,225.19 -39.03,112.56 -44.68,137.73 -44.68,263.46 0,82.86 22.55,175.04 46.33,234.54 28.21,70.6 58.28,122.69 102.07,178.8 36.76,47.08 93.31,102.3 143.4,137.47 298.07,209.35 1395.02,258.93 1674.3,49.11 77.73,-58.4 155.44,-149.39 155.44,-253.6 0,-171.08 -76.36,-217.48 -76.36,-373.59 0,-81.95 32.44,-168.56 56.11,-230.22 25.17,-65.6 55.34,-148.18 69.1,-217.22 28.48,-142.9 41.78,-295.53 61.77,-439.98 3.17,-22.89 5.38,-47.49 6.63,-73.29l0 -106.58c-7.09,-159.67 -44.95,-337.29 -113.4,-441.82 -27.77,-42.4 -24.3,-32.87 -47.84,-61.24 -10.19,-12.29 -9.22,-8.42 -19.43,-18.74 -262.23,-242.78 -1189.93,-401.07 -1813.49,-156.93 -100.94,76.07 -168.28,198.53 -168.28,338.93z"/>
 </g>
</svg>
