<?xml version="1.0" encoding="UTF-8"?>
<!DOCTYPE svg PUBLIC "-//W3C//DTD SVG 1.1//EN" "http://www.w3.org/Graphics/SVG/1.1/DTD/svg11.dtd">
<!-- Creator: CorelDRAW 2018 (64 Bit) -->
<svg xmlns="http://www.w3.org/2000/svg" xml:space="preserve" width="5746px" height="2118px" version="1.1" style="shape-rendering:geometricPrecision; text-rendering:geometricPrecision; image-rendering:optimizeQuality; fill-rule:evenodd; clip-rule:evenodd"
viewBox="0 0 1878.78 692.7"
 xmlns:xlink="http://www.w3.org/1999/xlink">
 <defs>
  <style type="text/css">
   <![CDATA[
    .fil0 {fill:#FCFCFC}
   ]]>
  </style>
 </defs>
 <g id="Camada_x0020_1">
  <metadata id="CorelCorpID_0Corel-Layer"/>
  <g id="_1739452843008">
   <path class="fil0" d="M0 623.99l1878.78 0 0 -482.3c-6.37,1.7 -18.05,15.87 -41.33,5.91 -40.26,-17.22 -61.7,-109.71 -76.22,-128.14 -9.4,-11.92 -18.66,-17.73 -27.15,-19.46l-11.07 0c-17.31,3.61 -29.15,23.51 -28.06,36.59 0.53,6.44 4.74,14.97 7.84,19.51 15.96,23.33 76.68,34.84 53.87,73.83 -6.73,11.49 -21.71,17.79 -34.89,19.62 -53.85,7.48 -87.94,-79.6 -136,-82.81 -16.36,-1.09 -30.01,9.69 -35.81,19.97 -9.97,17.64 -4.35,41.78 18.61,53.2 19.42,9.67 45.98,12.09 63.05,18.7 15.8,6.11 24.26,9.56 36.42,19.44 21.77,17.67 35.36,41.01 38.84,70.15 2.64,22.06 4.14,48.5 -7.13,68.69 -18.34,32.86 -43.44,49.75 -81.36,56.24 -58.37,10 -107.17,-7.91 -158.08,-28.23l-55.2 -26.55c-6.51,-3.25 -12.04,-6.01 -18.16,-9.08 -6.42,-3.22 -12.79,-5.65 -19.54,-9.07 -6.29,-3.2 -12.72,-5.98 -18.79,-8.46 -45.97,-18.83 -97.4,-35.19 -146.18,-45.92 -30.43,-6.7 -59.23,-12.36 -91.46,-17.53l-73.04 -8.71c-9.01,-0.95 -17.61,-0.75 -26.65,-1.97 -13.6,-1.82 -95.53,-3.45 -106.27,-1.97 -14.85,2.03 -36.26,1.34 -51.18,3.31 -53.86,7.08 -86.17,8.36 -142.38,22.47 -56.48,14.18 -76.61,19.81 -126.19,38.66l-133.15 58.96c-6.88,2.76 -11.85,5.33 -19.36,7.88 -48.28,16.37 -78.78,26.62 -131.25,33.61 -86.33,11.51 -181.17,-1.29 -242.5,-51.25 -28.16,-22.93 -47.24,-42.49 -56.28,-81.32l-2.73 376.03z"/>
   <path class="fil0" d="M1822.92 102.18c0,21.11 27.08,35.48 44.2,18.31 20.55,-20.59 -1.28,-83.41 -36.37,-40.45 -4.68,5.72 -7.83,12.3 -7.83,22.14z"/>
   <path class="fil0" d="M1540.9 40.87c0,9.87 8.49,17.71 14.99,17.71 17.31,0 30.29,-9.01 51.33,1.81 30.12,15.5 4.03,-18.45 -0.35,-22.82l-2.87 -2.57c-31.93,-29.06 -63.1,-8.83 -63.1,5.87z"/>
  </g>
  <rect class="fil0" y="621.75" width="1878.76" height="70.96"/>
 </g>
</svg>
