<?xml version="1.0" encoding="UTF-8"?>
<!DOCTYPE svg PUBLIC "-//W3C//DTD SVG 1.1//EN" "http://www.w3.org/Graphics/SVG/1.1/DTD/svg11.dtd">
<!-- Creator: CorelDRAW 2018 (64 Bit) -->
<svg xmlns="http://www.w3.org/2000/svg" xml:space="preserve" width="286.882mm" height="346.3mm" version="1.1" style="shape-rendering:geometricPrecision; text-rendering:geometricPrecision; image-rendering:optimizeQuality; fill-rule:evenodd; clip-rule:evenodd"
viewBox="0 0 8689.4 10489.13"
 xmlns:xlink="http://www.w3.org/1999/xlink">
 <defs>
  <style type="text/css">

   @-webkit-keyframes like-mini {
       40%{
           -webkit-transform: rotate(30deg) scale(1.15);
               -ms-transform: rotate(30deg) scale(1.15);
                   transform: rotate(30deg) scale(1.15);
       }
       70%{
           -webkit-transform: rotate(-20deg) scale(.9,.9);
               -ms-transform: rotate(-20deg) scale(.9,.9);
                   transform: rotate(-20deg) scale(.9,.9);
       }
       90%{
           -webkit-transform: rotate(5deg);
               -ms-transform: rotate(5deg);
                   transform: rotate(5deg);
       }
   }

   @keyframes like-mini {
       40%{
           -webkit-transform: rotate(30deg) scale(1.15);
               -ms-transform: rotate(30deg) scale(1.15);
                   transform: rotate(30deg) scale(1.15);
       }
       70%{
           -webkit-transform: rotate(-20deg) scale(.9,.9);
               -ms-transform: rotate(-20deg) scale(.9,.9);
                   transform: rotate(-20deg) scale(.9,.9);
       }
       90%{
           -webkit-transform: rotate(5deg);
               -ms-transform: rotate(5deg);
                   transform: rotate(5deg);
       }
   }
   <![CDATA[
    .str0 {stroke:#383994;stroke-width:6.06;stroke-miterlimit:22.9256}
    .fil0 {fill:#383994}
   ]]>
   svg:hover{
   animation: like-mini 1s 1;
   }
  </style>
 </defs>
 <g id="like-logo">
  <g id="_1520531914160">
   <path class="fil0 str0" d="M95.83 7618.62c-14.21,57.33 -26.65,107.97 -37.79,165.75 -10.9,56.55 -16.74,112.25 -27.78,167.15 8.04,11.34 21.16,62.69 27.69,81.34 245.11,699.63 1061.59,617.68 1658.18,439.85 207.62,-61.89 411.68,-143.6 635.25,-185.79 8.9,-6.88 78.42,-187.59 89.96,-221l85.69 -234.53c58.35,-156.63 115.91,-308.62 187.89,-452.55 36.17,-72.32 72.12,-135.74 113.57,-202.01 10.47,-16.74 19.9,-30.6 31.5,-47.4l72.61 -85.18c204.03,-188.58 521.5,-244 771.29,-95.9 97.99,58.1 187.9,132.81 242.49,235.53l51.99 110.44c6.97,19.11 11.47,40.3 17.57,61.33 6.33,21.84 10.07,40.55 13.63,65.27 21.49,149.28 -16.4,281.33 -42.6,427.05 -16.73,93.05 -31.47,183.93 -47.1,273.11 -8.21,46.83 -12.07,90.8 -21.06,136.73 -13.05,66.65 -23.98,206.05 -34.63,285.59 -6.55,48.95 -4.65,106.02 -9.87,152.56 -9.62,85.7 3.37,290.32 14.51,378.6 9.63,76.28 25.57,132.42 40.08,201.25 12.45,59.06 57.77,184.88 83.96,236.26 47.84,93.83 44.36,101.33 114.17,206.05 36.92,55.38 94.55,128.69 139.97,180.26 138.49,157.24 374.01,309.03 569.97,390.7 95.63,39.85 132.45,52.07 231.1,84.49 39.46,12.97 83.86,24.65 123.55,34.24l134.42 28.02c73.77,9.72 200.02,35.57 278.99,41.24 174.34,12.51 292.4,9.8 463.96,5.08 91.17,-2.5 339.45,-38.78 424.87,-57.79l258.21 -62.01c37.8,-9.6 227.19,-68.87 235.72,-79.89 17,-23.52 33.38,-30.57 49.63,-52.32 12,-16.05 24.15,-38.18 31.77,-60.91 18.25,-54.42 10.23,-109.43 -12.63,-155.26 -73.41,-147.18 -206.54,-78.68 -199.58,-176.81 1.87,-26.44 18.22,-36.95 38.05,-60.49 15.68,-18.62 27.43,-31.79 42.34,-50.43 198.45,-248.12 357.96,-562.15 438.75,-878.94 45.64,-178.98 89.08,-480.93 65.51,-676.42l-186.42 67.87c-108.1,36.35 -313.17,85.54 -429.92,85.22 -28.09,-0.08 -33.65,4.55 -60.1,4.88 -137.45,1.7 -271.81,-12.54 -398.74,-51.81 -135.1,-41.79 -225.9,-89.04 -339.45,-175.7 -139.2,-106.23 -261.39,-283.15 -328.77,-446.26 -49.71,-120.34 -91.82,-253.6 -112.86,-402.27 -25.09,-177.27 -12.13,-302.39 107.54,-381.39 96.33,-63.58 247.2,-95.82 365.89,-121.64l20.86 -8.28 -191.29 -102.28c-180.5,-114.99 -316.31,-262.04 -413.85,-463.98 -134.11,-277.66 -153.72,-674.49 -9.73,-957.26l-8.55 1.31c-14.7,-3.27 -5.47,-4.49 -38.05,17.66 -136.13,92.57 -435.15,267.16 -568.45,341.18l-556.91 287.74c-30.5,15.26 -53.99,26.56 -84.97,40.34 -54.87,24.41 -107.3,52.13 -165.18,76.15 -57.69,23.95 -109.16,50.48 -167.72,73.61l-170.42 70.92c-60.51,24.13 -113.99,47.86 -176.08,69.89l-357.41 129.89c-121.16,42.44 -241.8,83.16 -367.87,119.43 -18.6,5.35 -28.52,8.14 -46.23,14.1l-521.55 142.11c-156.45,41.71 -534.59,120.83 -700.75,148.55 -33.75,5.63 -71.96,11.14 -103.38,17.29 -35.13,6.88 -66.77,11.25 -103.51,17.15 -167.7,26.93 -370.27,43.68 -510.61,97.36 -31.1,11.89 -54.79,23.89 -84.15,36.52 -87.52,37.64 -225.15,127.87 -292.65,194.65 -73.3,72.53 -108.02,107.41 -172.78,193.84 -53.38,71.25 -133.05,197.61 -168.89,286.26 -6.85,16.93 -5.92,12.09 -2.85,24.67z"/>
   <path class="fil0 str0" d="M3882.9 2100.68l-3.97 12.84 108.94 95.66c110.88,110.74 181.63,126.57 307.88,314.13 261.53,388.55 211.15,881.15 -79.34,1247.39 -79.81,100.62 -158.7,186.6 -251.58,263.67 -240.67,199.71 -385.18,295.63 -680.84,465.43 -334.85,192.31 -747.88,396.6 -1070.79,590.61 -175.71,105.57 -348.3,207.54 -505.26,321.64 15.13,3.02 50.96,-2.43 72.59,-2.43 54.98,21.24 485.58,-35.35 586.17,-49.68 39.63,-5.64 75.84,-12.73 111.3,-18.64l423.1 -92.05c71.84,-17.85 136.88,-38.33 203.13,-56.76l291.42 -98.42c386.75,-154.6 563.22,-236.92 907.57,-442.94 220.41,-131.86 366.73,-247.95 568.17,-401.79 134.93,-103.05 402.29,-349.17 507.18,-458.14 12.72,-13.22 16.39,-21.42 30,-34.97 22.85,-22.74 42.55,-41.99 65.13,-64.81l122.86 -137.03c169.65,-181.28 316.18,-385.11 427.4,-607.52 36,-71.99 69.07,-151.45 95.39,-229.47 67.1,-198.88 97.86,-398.89 97.99,-612.07 0.05,-85.66 -10.04,-163.3 -18.95,-240.93 -1.91,-16.66 -5.11,-42.9 -7.47,-57.5 -3.74,-23.12 -7.27,-33.35 -10.75,-54.22 -36.1,-216.92 -129.2,-478.01 -236.4,-663.93 -185.67,-321.96 -435.94,-606.34 -764.42,-785.65 -30.11,-16.43 -51.95,-30.63 -83.58,-46.36 -292.3,-145.44 -452.16,-201.95 -787.12,-243.18 -39.74,-4.89 -83.5,-2 -122.11,-7.84 -7.13,-1.08 -14.96,-1.97 -23.36,-2.68l-152.05 0c-112.85,5.67 -240.36,20.33 -309.95,31.76 -202.95,33.31 -390.99,106.24 -573.21,197.19l-84.23 45.71c-206.43,132.64 -138.29,435.66 133.74,463.23 171.68,17.4 396.77,76.5 547.41,162.66 135.43,77.47 246.12,192.89 294.32,355.41 32.79,110.54 31.52,228.2 15.54,348.45l-21.53 108.41c-18.05,81.14 -78.14,262.4 -116.33,338.48 -12.4,24.69 -18.57,27.55 -13.99,46.36z"/>
   <path class="fil0 str0" d="M1780.54 5409.61c-21.63,0 -57.46,5.46 -72.59,2.43 156.96,-114.1 329.55,-216.07 505.26,-321.64 322.91,-194.01 735.94,-398.3 1070.79,-590.61 295.66,-169.8 440.17,-265.71 680.84,-465.43 92.87,-77.07 171.77,-163.05 251.58,-263.67 290.49,-366.24 340.87,-858.85 79.34,-1247.39 -126.26,-187.57 -197.01,-203.39 -307.88,-314.13l-108.94 -95.66 3.97 -12.84c-9.93,7.36 -6.2,4.21 -12.76,15.24l-22.8 46.64c-97.6,195.18 -188.67,348.76 -307.85,527.51 -212.28,318.38 -363.77,502.54 -596.01,796.27l-233.56 276.94c-9.91,10.66 -10.99,14.85 -20.9,25.5l-348.16 394.39c-10.5,10.87 -11.43,14.94 -20.83,25.58l-132.14 146.31c-8.68,8.77 -14.76,14.05 -23.39,23.02l-132.11 146.34c-8.48,8.41 -15.47,14.26 -23.06,23.35 -46.81,55.99 -111.17,118.71 -155.65,169.22l-176.36 194.92c-8.44,8.33 -15.51,14.46 -23.21,23.2l-44.18 48.64c-83.26,89.98 -304.39,342.83 -363.1,430.49l199.59 4.61c29.5,-0.15 41.84,3.43 64.92,4.69l255.06 -5.1c16.38,-4.7 4.57,5.63 14.14,-8.82z"/>
   <path class="fil0 str0" d="M5456.22 5219.29l8.55 -1.31c-143.99,282.77 -124.39,679.6 9.73,957.26 97.54,201.94 233.36,348.99 413.85,463.98l191.29 102.28 706.57 -136.57c122.65,-24.52 329.55,-71.78 454.17,-107.39 138.79,-39.66 295.29,-86.18 426.97,-139.23 28.52,-11.49 184.45,-74.56 192.94,-85.54 4.63,-18.39 -9.71,-30.62 -32.43,-60.46 -72.72,-95.53 -161.86,-180.2 -260.64,-249.78 -396.67,-279.41 -914.12,-367.49 -1151.1,-682.16 -224.36,-297.93 -210.45,-489.93 -249.82,-564.85 -14.51,0.7 -10.8,1.79 -23.37,11.58l-62.83 48.67c-189.86,142.31 -401.21,293.01 -599.79,421.05 -3.17,2.04 -7.98,4.76 -11.13,7.43 -13.59,11.55 -4.45,1.48 -12.97,15.03z"/>
   <path class="fil0 str0" d="M6500.43 4448.94c-7.15,35.34 124.28,242.69 142,266.5 121.91,163.71 276.31,284.8 469.28,366.02 111.73,47.03 210.92,58.16 327.27,89.95 148.43,40.55 309.52,109.32 423.13,203.85 19.89,16.55 36.92,31.4 55.95,46.21 31.66,24.65 73.78,75.62 102.48,106.32 16.6,17.76 32.15,38.22 47.72,58.98 81.88,109.1 151.1,248.67 186.6,383.88 1.12,4.27 4.93,20.71 5.68,22.6 8.53,21.52 -3.51,15.07 12.79,10.39 11.36,-0.28 13.62,-3.31 21.91,-10.34 7.71,-6.54 13.68,-13.61 21.03,-21.01 188.53,-189.7 264.13,-309.74 335.7,-559.99 6.73,-23.52 8.55,-39.99 13.17,-65.72 12.07,-67.14 19.29,-140.01 21.24,-213.32l0 -80.85c-2.17,-80.41 -10.92,-158.98 -26.82,-228.6 -38.12,-166.97 -104.7,-307.48 -206.55,-443.17l-74.05 -88.38c-152.04,-150.31 -289.65,-248.29 -499.52,-312.64 -175.03,-53.67 -372.88,-68.88 -575.78,-26.95 -114.11,23.58 -255.32,76.2 -352.18,135.12l-144.74 96.58c-53.71,37.88 -34.61,27.8 -66.31,54.35l-67.13 58.18c-9.27,8.23 -11.5,8.11 -20.76,16.36l-145.7 123.65c-8.89,8.84 -6.18,3.17 -6.4,12.02z"/>
   <path class="fil0 str0" d="M7441.62 8170.87c23.57,195.49 -19.87,497.44 -65.51,676.42 -80.78,316.79 -240.3,630.82 -438.75,878.94 -14.91,18.64 -26.66,31.82 -42.34,50.43 -19.82,23.54 -36.17,34.04 -38.05,60.49 -6.95,98.13 126.18,29.63 199.58,176.81 22.86,45.83 30.88,100.84 12.63,155.26 -7.62,22.73 -19.77,44.86 -31.77,60.91 -16.25,21.74 -32.64,28.8 -49.63,52.32 28.81,-4.55 99.12,-34.71 129.33,-47 88.22,-35.9 151.58,-67.93 237.29,-110.79 78.34,-39.17 202.48,-110.43 276.37,-159.88 11.08,-7.41 13.43,-9.79 25.04,-16.72 36.96,-22.07 137.12,-98.85 176.61,-129.7l70.79 -59.16c10.11,-9.4 13.24,-9.84 23.16,-18.61l46.54 -41.64c32.16,-30.95 139.68,-137.71 171.15,-176.91 151.57,-188.73 237.07,-304.21 332.16,-540.33 95.38,-236.84 155.26,-626.26 78.29,-897.11 -24.47,-86.12 -70.84,-168.42 -133.25,-214.82 -165.84,-123.29 -389.82,-17.65 -530.13,53.51 -88.57,44.92 -203.49,126.97 -329.43,190.35l-120.09 57.23z"/>
   <path class="fil0 str0" d="M1163.28 2379.13c0,151.94 14.77,216.12 70.26,352.06 16.91,41.43 45.03,83.83 69.84,120.43l86.01 104.26c141.55,141.55 326.67,213.75 535.05,226.19 33.94,2.03 139.32,-11.64 172.12,-18.21 117.32,-23.49 230.14,-78.58 321.25,-152.12 72.75,-58.72 129.69,-120.51 178.66,-201.9 200.77,-333.68 128.73,-758.77 -170.19,-1002.2 -17.56,-14.3 -33.61,-27.32 -52.57,-40.25 -19.43,-13.25 -36.25,-23.13 -57.88,-34.94 -12.69,-6.93 -17.46,-11.03 -29.31,-17.1 -11.99,-6.15 -22.06,-8.96 -35.7,-15.35 -136.95,-64.19 -323.47,-88.46 -483.34,-48.6 -49.78,12.41 -99.63,24.93 -143.23,47.05 -45.62,23.13 -78.55,36.5 -122.88,67.4 -42.27,29.47 -47,37.13 -77.53,61.7 -12.28,9.88 -15.74,11.85 -27.41,23.64 -131.63,133.11 -233.17,324.44 -233.17,527.93z"/>
   <path class="fil0 str0" d="M6166.3 4715.52c39.37,74.92 25.45,266.92 249.82,564.85 236.98,314.67 754.43,402.75 1151.1,682.16 98.78,69.58 187.93,154.24 260.64,249.78 22.72,29.84 37.06,42.07 32.43,60.46l114.48 -57.21c56.85,-30.59 82.81,-50.4 130.05,-78.8 31.42,-18.89 155.81,-101.95 168.5,-133.13 -16.29,4.68 -4.26,11.13 -12.79,-10.39 -0.75,-1.88 -4.56,-18.32 -5.68,-22.6 -35.5,-135.21 -104.72,-274.78 -186.6,-383.88 -15.58,-20.76 -31.13,-41.21 -47.72,-58.98 -28.7,-30.71 -70.82,-81.68 -102.48,-106.32 -19.02,-14.81 -36.06,-29.66 -55.95,-46.21 -113.61,-94.53 -274.7,-163.29 -423.13,-203.85 -116.34,-31.79 -215.54,-42.92 -327.27,-89.95 -192.97,-81.22 -347.36,-202.31 -469.28,-366.02 -17.73,-23.8 -149.15,-231.16 -142,-266.5l-26.72 15.29c-46.92,39.96 -299.14,235.4 -307.41,251.3z"/>
   <path class="fil0 str0" d="M16.93 8194.08c-23.17,60 77.11,335.64 125.12,417.88l48.57 86.01c128,209 367.09,415.24 597.27,497.99 159.48,57.34 180.12,55.77 343.58,74.11 96.53,10.83 261,-21.03 354.94,-52.12 143.43,-47.46 280.39,-130.12 392.71,-229.17 110.24,-97.22 202.71,-209.59 284.76,-332.48 96.37,-144.34 104.44,-184.53 167.38,-315.26 8.57,-17.81 16.8,-33.12 20.12,-54.12 -223.57,42.2 -427.63,123.91 -635.25,185.79 -596.59,177.82 -1413.07,259.78 -1658.18,-439.85 -6.53,-18.65 -19.65,-70 -27.69,-81.34 -7.1,53.54 -24.96,197.61 -13.33,242.56z"/>
   <path class="fil0 str0" d="M16.93 8194.08c-11.62,-44.95 6.23,-189.02 13.33,-242.56 11.04,-54.91 16.88,-110.61 27.78,-167.15 11.14,-57.78 23.58,-108.41 37.79,-165.75 -21.2,15.71 -41.23,98.03 -48.4,123.29 -26.28,92.58 -41.35,183.09 -44.4,276.5l0 71.44c0.67,20.86 1.93,41.92 3.78,63.23 4.36,50.14 -4.45,31.34 10.12,41z"/>
  </g>
 </g>
</svg>
