<?xml version="1.0" encoding="UTF-8"?>
<!DOCTYPE svg PUBLIC "-//W3C//DTD SVG 1.1//EN" "http://www.w3.org/Graphics/SVG/1.1/DTD/svg11.dtd">
<!-- Creator: CorelDRAW 2018 (64 Bit) -->
<svg xmlns="http://www.w3.org/2000/svg" xml:space="preserve" width="2114px" height="2397px" version="1.1" style="shape-rendering:geometricPrecision; text-rendering:geometricPrecision; image-rendering:optimizeQuality; fill-rule:evenodd; clip-rule:evenodd"
viewBox="0 0 2177 2468.41"
 xmlns:xlink="http://www.w3.org/1999/xlink">
 <defs>
  <style type="text/css">
   <![CDATA[
    .fil0 {fill:#FEFEFE}
   ]]>
  </style>
 </defs>
 <g id="Camada_x0020_1">
  <metadata id="CorelCorpID_0Corel-Layer"/>
  <path class="fil0" d="M74.25 363.28c0,235.49 190.91,412.16 190.91,604.57 0,74.5 -33.62,141.57 -59.18,192.72l-21.22 39.77c-4.42,8.85 -7.1,12.04 -11.53,20.29 -4.35,8.09 -6.39,13.33 -10.97,20.85 -8.46,13.9 -13.77,27.5 -22.23,41.4 -25.93,42.58 -81.05,174.18 -96.58,218.97 -37.96,109.46 -43.45,133.93 -43.45,256.19 0,80.58 21.93,170.21 45.05,228.07 27.43,68.65 56.67,119.31 99.26,173.86 35.74,45.78 90.73,99.48 139.43,133.69 130.91,91.94 234.18,121.61 401.48,144.76 66.97,9.27 125.56,9.66 187.56,16.62 10.57,1.18 23.35,0.15 34.19,0.28 14.73,0.18 16.88,2.68 31.61,2.86 47.19,0.58 86.81,2.55 132.68,2.55 36.64,0 104.12,-3.83 136.77,1.12 22.19,3.36 71.83,1.08 99.34,1.42 14.73,0.18 16.88,2.68 31.61,2.87 222.55,2.74 377.92,21.72 572.86,-124.73 75.58,-56.79 151.14,-145.28 151.14,-246.61 0,-166.35 -74.24,-211.47 -74.24,-363.28 0,-79.69 31.54,-163.9 54.55,-223.86 24.48,-63.79 53.82,-144.09 67.2,-211.23 27.69,-138.95 40.62,-287.37 60.06,-427.84 3.08,-22.25 5.23,-46.17 6.45,-71.26l0 -103.63c-6.89,-155.27 -43.71,-327.99 -110.27,-429.63 -27.01,-41.23 -23.63,-31.97 -46.52,-59.55 -9.91,-11.95 -8.96,-8.19 -18.89,-18.23 -71.58,-72.34 -220.75,-98.79 -330.78,-98.79 -157.62,0 -235.97,41.46 -360.17,58.8 -174.34,24.34 -639.87,53.11 -776.56,-19.85 -8.84,-4.72 -16.1,-10.08 -24.2,-15.58 -5.45,-3.7 -6.93,-5.16 -12.23,-8.98 -5.12,-3.7 -7.97,-5.12 -12.52,-8.69 -55.4,-43.33 -99.52,-88.44 -152.06,-93.2l-18.24 0c-23.15,2.08 -48.22,12.24 -76.69,33.7 -98.15,73.97 -163.62,193.05 -163.62,329.58z"/>
 </g>
</svg>
