<?xml version="1.0" encoding="UTF-8"?>
<!DOCTYPE svg PUBLIC "-//W3C//DTD SVG 1.1//EN" "http://www.w3.org/Graphics/SVG/1.1/DTD/svg11.dtd">
<!-- Creator: CorelDRAW 2018 (64 Bit) -->
<svg xmlns="http://www.w3.org/2000/svg" xml:space="preserve" width="13750" height="1349" version="1.1" style="shape-rendering:geometricPrecision; text-rendering:geometricPrecision; image-rendering:optimizeQuality; fill-rule:evenodd; clip-rule:evenodd"
viewBox="0 0 13750 1349"
 xmlns:xlink="http://www.w3.org/1999/xlink">
 <defs>
  <style type="text/css">
   <![CDATA[
    .fil0 {fill:#fcfcfc}
   ]]>
  </style>
 </defs>
 <g id="Camada_x0020_1">
  <metadata id="CorelCorpID_0Corel-Layer"/>
  <path class="fil0" d="M-0 910.95c10.16,-9.99 -2.21,3.83 13.69,-14.09 183.74,-206.83 311.07,-303.97 623.81,-438.53 636.97,-274.1 1464.46,-205.35 2134.18,-40.22 110.81,27.32 190.89,54.64 294.65,83.59 200.76,56.02 379.14,143.14 548.81,201.79l542.41 207.24c45.27,17.07 88.9,28.8 137.84,45.61 52.89,18.16 90.64,29.72 147.54,45.9 313.65,89.22 589.46,158.69 924.8,215.95 470.59,80.35 924.14,124.1 1376.27,131.05l257.52 0c447.65,-6.97 896.77,-50.09 1362.53,-129.62 241.43,-41.23 393.2,-76.01 628.43,-133.8 107.54,-26.42 195.52,-52.66 297.21,-81.42 260.8,-73.75 450.58,-154.83 695.96,-248.02 48.5,-18.42 89.64,-36.57 137.89,-54.16 183.15,-66.74 352.95,-140.75 547.9,-202.54 585.34,-185.51 1375.81,-302.76 1997.68,-169.65 150.52,32.21 305.81,72.16 440.45,131 142.48,62.25 233.25,117.8 358.89,200.63 61.48,40.53 173.52,139.42 221.45,197.67 27.54,33.48 24.18,41.92 60.31,77.42l0 -936.73 -13750.23 0 0 910.95zm4842.11 -164.71l0 0zm888.48 55.53c1.7,-20.37 54.63,-146.42 129.56,-148.09 0,82.94 -23.82,100.75 -55.52,148.09 -20.45,-14.21 -11.5,-1.52 -18.51,-27.77 -42.66,3.55 -25.23,7.48 -55.52,27.77zm-906.99 -120.32l2.76 2.76c-0.18,-0.18 -3.68,-1.84 -2.76,-2.76zm684.86 37.02c3.77,-14.09 15.99,-39.38 25.28,-48.75 23.06,-23.2 16.26,-16.04 58.02,-16.04 -4.22,50.75 -30.63,63.62 -83.3,64.79zm388.71 -101.8l2.75 2.75c-0.17,-0.17 -3.66,-1.84 -2.75,-2.75zm-92.55 0l0 0zm-962.52 129.57c-23.53,9.5 -24.95,10.59 -41.95,89.11 -12.42,57.34 6.9,67.03 60.47,68.22 0,-86.77 95.76,-234.69 141.75,-311.75 18.08,-30.29 49.54,-67.99 52.61,-104.72 -63.26,0 -99.17,7.31 -123.71,52.13 -14.83,27.09 -56.26,101.7 -61.4,123.71l-74.04 -46.28c28.12,-105.28 224.15,-273.77 337.3,-207.79 65.14,37.99 50.18,174.44 -115.22,254.02 -42.02,20.23 -61.92,22.16 -74.01,74.08 121.01,0 198.57,-49.24 268.39,-129.57 1.26,56.47 30.82,79.06 64.78,101.8 -10.61,45.53 -40.94,104.55 5.61,142.53 55.02,44.89 103.92,-2.59 133.21,-22.21 50.85,75.93 156.68,29.73 212.87,0 -3.2,38.49 -22.02,78.84 -26.89,121.68 -7.5,65.83 4.01,81.76 36.13,109.68 92.33,-21.51 -11.57,-77.98 81.19,-242.73 6.73,-11.96 5.19,-9.3 11.37,-16.39 14.58,175.31 289,-24.73 198.5,-180 -33.08,-56.73 -84.22,-26.39 -124.46,-5.1 -4.77,-17.98 -1.7,-14.32 -9.25,-27.76l-64.79 0c-29.27,55.32 -46.24,105.41 -89.89,150.73 -27.71,28.77 -127.5,112.15 -150.74,25.1 69.82,0 112.2,-20.63 131.84,-72.53 40.02,-105.75 -104.43,-161.38 -190.51,-4.63 -29.04,52.89 -23.91,98.92 -89.41,114.19 1.05,-46.93 18.23,-70.14 27.76,-111.06 -22.23,-25.59 -44.15,-46.42 -83.29,-55.53 0.96,-43.12 10.89,-48.82 27.77,-74.04 -28.86,-15.27 -29.03,-18.5 -74.04,-18.5 4.89,-58.87 19.17,-126.26 -60.46,-180.18 -56.21,-38.07 -144.79,-43.78 -222.26,-19.23 -67.08,21.23 -110.71,60.85 -154.64,104.5 -45.7,45.41 -90.19,90.48 -90.19,178.2 57.13,38.26 95.88,56.64 129.57,120.32zm3072.65 -138.83l0 0zm0 0c2.43,-29.07 10.64,-42.73 22.11,-70.44 14.75,-35.6 14.86,-40.5 42.68,-59.13 -1.09,48.52 -36.93,97.51 -64.79,129.57zm64.79 -129.57l0 0zm-1397.5 240.62c3.76,-14.09 15.98,-39.38 25.28,-48.75 23.05,-23.2 16.24,-16.04 58.01,-16.04 -4.22,50.75 -30.63,63.62 -83.29,64.79zm564.55 -18.5c0,-23.67 14.66,-1.48 5.51,0 -0.11,0.01 -5.51,25.83 -5.51,0zm0 -27.76l2.76 2.75c-0.18,-0.17 -3.68,-1.84 -2.76,-2.75zm342.44 -194.36l2.75 2.75c-0.17,-0.17 -3.67,-1.84 -2.75,-2.75zm1332.71 323.93c4.77,-20.51 5.19,-21.17 14.91,-40.62l22.11 -33.41c0,58.87 14.58,68.64 -37.02,74.04zm-224.24 -129.57c41.4,-19.29 79.61,-32.29 52.06,48.83 -14.99,44.17 -36.62,65.43 -71.4,89.98 -15.21,-4.88 -12.68,-2.43 -24.82,-9.25 0,-75.09 20.03,-83.25 44.15,-129.57zm-36.72 194.34c42.78,-3.28 48.23,-9.57 66.61,-37.01 20.04,13.41 24.36,25.88 50.36,33.69 43.56,13.08 52.18,-2.97 76.48,-8.29 33.28,-7.31 72.89,30.31 142.06,2.89 58.08,-23.02 160.48,-109.03 138.32,-204.14l-27.77 0c-8.9,38.26 -36.72,83.03 -64.77,101.82 0,-89.47 -45.42,-69.62 -18.52,-185.1 -187.5,0 -42.36,37.46 -143.93,189.26 -10.56,15.78 -21.38,33.91 -40.81,41.58 -16.5,6.5 -21.78,11.7 -21.03,-14.57 1.64,-57.05 46.44,-130.91 57.7,-179.25 -67.17,-5.59 -34.31,-20.48 -92.55,18.5 -18.39,-27.45 -23.82,-33.73 -66.64,-37.01 -58.05,5.27 -89.31,44.58 -114.81,86.94 -39.71,65.96 -26.46,109.78 -86.95,125.92 0,-149.26 123.95,-194.36 -9.26,-194.36 -13.7,20.46 -31.7,42.24 -47.6,63.45 -57.12,76.16 -99.86,145.5 -202.28,121.64 0,-77.2 27.76,-107.82 74.05,-138.83 57.12,15.26 5.44,42.96 46.89,18.15 40.47,-24.21 -12.92,-123.06 -107.99,-60.78 -125.53,82.24 -69.76,168.83 -151.78,190.72 0,-66.73 27.66,-127 55.53,-185.1 -71.16,-34.15 -82.86,5.2 -111.23,64.62 -88.61,185.65 -119.49,117.95 -84.61,26.5 26.74,-70.11 98.7,-63.32 131.06,-202.18 23.44,15.7 138.68,131.48 148.07,18.51 -44.16,0 -87.93,-5.91 -113.06,-26.38 -36.27,-29.53 24.62,43.69 -13.21,-14.03l-7.14 -21.98c-0.21,-1.67 0.04,-4.52 -0.13,-6.24 -3.31,-35.49 3.05,-18.45 -14.54,-51.69 -115.64,2.58 -162.02,152.18 -193.53,232.31 -12.57,31.95 -12.01,14.53 -17.93,45.33 -11.6,7.07 -171.86,207.46 -205.03,83.29 137.16,0 154.32,-102.99 126.99,-145.07 -92.92,-143.02 -343.22,229.33 -136.31,247.2 93.79,8.1 181.42,-41.85 206.48,-102.13 10.7,24.17 2.68,24.31 10.28,51.48 1.98,7.04 6.76,19.65 11.6,25.62 48.3,59.48 88.52,-0.53 132.64,-12.31 10.02,27.67 36.2,37.98 63.92,36.36 28.05,-1.66 55.81,-23.57 74.91,-36.36 73.87,110.31 244.12,-26.24 249.89,-27.76 3.24,38.94 15.54,57.24 48.36,63.72 46.76,9.25 67.08,-11.05 90.47,-26.72 32.7,21.9 34.16,27.76 90.72,27.76zm-951.45 -148.07c3.77,-14.09 16,-39.38 25.29,-48.75 23.06,-23.2 16.25,-16.04 58.01,-16.04 -4.22,50.75 -30.63,63.62 -83.3,64.79zm-1573.33 64.79l0 -9.26c0,-67.53 101.8,-170.65 101.8,-92.55l0 9.26c0,67.53 -101.8,170.65 -101.8,92.55zm166.59 -35.88c1.27,-1.99 2.88,-7.59 3.36,-6.24l11.77 -26.09c6.15,-15.57 7.93,-21.78 12.59,-33.66 9.11,-23.1 22.01,-49.08 27.81,-73.98 -67.18,-5.59 -34.32,-20.48 -92.55,18.5 -70.73,-105.6 -171.02,20.69 -200.87,86.04 -72.66,159.03 85.9,193.77 136.38,126.82 36.17,-15.25 65.51,73.71 158.96,1.93 21.03,-16.15 35.58,-36.67 49.92,-61.15 9.49,-16.2 10.11,-21.04 18.53,-36.99 19.38,-36.61 4.38,-23.57 31.44,-33.36 -10.5,45.05 -40.52,96.78 0.76,138.06 43,43 94.51,14.47 128.8,-8.5 74.06,49.58 173.27,35.18 212.96,-18.5 34.39,-9.23 70.64,-57.98 88.06,-89.31 20.76,-37.33 16.81,-51.4 4.4,-77.28 -26.79,7.17 -22.57,10.49 -51.53,50.28 -20.32,27.93 -34.26,36.39 -49.84,60.78 -36.66,18.87 -109.66,76.18 -130.01,0 183.14,0 164.8,-191.01 58.09,-174.33 -81.41,12.72 -121.7,96.61 -141.79,164.67 -10.49,35.54 -16.49,37.69 -55.11,46.69 1.04,-46.93 18.22,-70.14 27.76,-111.06 -22.25,-25.59 -44.17,-46.42 -83.29,-55.53 0.94,-43.12 10.87,-48.82 27.76,-74.04 -28.86,-15.27 -29.02,-18.5 -74.05,-18.5 -61.12,91.28 9.14,93.73 -39.74,182.32 -12.42,22.5 -32.46,56.47 -51.74,70.77 -48.76,36.18 -28.84,-4.57 -28.84,-48.35zm856.5 -158.47c44.37,-51.34 63.13,-118.94 167.31,-170.08 125.93,-61.82 180.82,-30.02 225.61,60 1.22,51.97 21.25,45.65 -10.1,146.25 -38.35,123.07 -166.02,241.46 -295.31,241.46 0,-103.35 64.43,-197.03 101.8,-268.59 18.42,-27.09 56,-77.93 64.79,-110.85 -46.77,0 -76.79,-7.23 -103.24,17.06 -16.78,15.41 -39.15,59.73 -44.83,86.98 -1.47,1.4 -3.55,1.83 -4.05,4.52l-14.63 20.76c-6.87,11.95 -11.65,24.61 -18.34,37.26 -24.1,-16.13 -39.11,-34.1 -74.04,-37.01l5.03 -27.76zm448.45 -139.18c-5.55,-65.63 -81.6,-123.11 -180.15,-129.21l-34.96 0c-69.79,4.3 -147.34,34.45 -217.77,103.91 -72.35,71.34 -60.35,82.66 -94.66,121.11 -37.71,109.54 48.27,84.39 104.44,161.92 20.56,28.39 12.82,28.38 3.67,62.67 -64.61,242.16 260.6,163.71 390.16,-34.65 30.23,-46.29 37.64,-70.25 50.56,-134.66 8.76,-43.73 10.61,-113.38 -21.29,-151.08zm906.99 111.41c0,27.35 43.79,27.77 64.79,27.77 33.23,-49.63 37.81,-47.83 9.25,-101.81 -56.04,0 -74.04,48.88 -74.04,74.04z"/>
 </g>
</svg>
